<svg id="Calendar" xmlns="http://www.w3.org/2000/svg" width="12" height="12" viewBox="0 0 12 12">
  <rect id="Rectangle_557" data-name="Rectangle 557" width="12" height="12" fill="none"/>
  <path id="Path_149" data-name="Path 149" d="M1.5,3.75V10.5h9V3.75ZM9.75,1.5h1.5a.709.709,0,0,1,.75.75v9a.709.709,0,0,1-.75.75H.75A.709.709,0,0,1,0,11.25v-9A.709.709,0,0,1,.75,1.5h1.5V.75A.709.709,0,0,1,3,0a.709.709,0,0,1,.75.75V1.5h4.5V.75a.75.75,0,0,1,1.5,0ZM9,9H7.5V7.5H9ZM6.75,9H5.25V7.5h1.5ZM9,6.75H7.5V5.25H9Zm-2.25,0H5.25V5.25h1.5ZM4.5,9H3V7.5H4.5Z" fill="#b1b3be" fill-rule="evenodd"/>
</svg>
