<svg xmlns="http://www.w3.org/2000/svg" width="10.234" height="13.025" viewBox="0 0 10.234 13.025"><defs><style>.a{fill:#a9adb5;}</style></defs><g transform="translate(-54.815)"><g transform="translate(54.815)"><path class="a" d="M64.911.138A.447.447,0,0,0,64.584,0h-9.3a.447.447,0,0,0-.327.138.447.447,0,0,0-.138.327v12.1a.472.472,0,0,0,.465.465h9.3a.472.472,0,0,0,.465-.465V.465A.448.448,0,0,0,64.911.138ZM64.119,12.1H61.328V10.467a.236.236,0,0,0-.233-.233H58.769a.236.236,0,0,0-.233.233V12.1H55.745V.93h8.374V12.1Z" transform="translate(-54.815)"/><path class="a" d="M128.14,366.383h.465a.236.236,0,0,0,.233-.233v-.465a.236.236,0,0,0-.233-.232h-.465a.236.236,0,0,0-.233.232v.465a.236.236,0,0,0,.233.233Z" transform="translate(-126.046 -356.149)"/><path class="a" d="M128.14,293.292h.465a.236.236,0,0,0,.233-.233v-.465a.236.236,0,0,0-.233-.232h-.465a.236.236,0,0,0-.233.232v.465a.236.236,0,0,0,.233.233Z" transform="translate(-126.046 -284.919)"/><path class="a" d="M201.233,293.292h.465a.236.236,0,0,0,.233-.233v-.465a.236.236,0,0,0-.233-.232h-.465a.236.236,0,0,0-.233.232v.465a.236.236,0,0,0,.233.233Z" transform="translate(-197.278 -284.919)"/><path class="a" d="M128.14,220.2h.465a.236.236,0,0,0,.233-.233V219.5a.236.236,0,0,0-.233-.233h-.465a.236.236,0,0,0-.233.233v.465a.236.236,0,0,0,.233.233Z" transform="translate(-126.046 -213.688)"/><path class="a" d="M347.412,366.383h.465a.236.236,0,0,0,.233-.233v-.465a.235.235,0,0,0-.233-.232h-.465a.236.236,0,0,0-.232.232v.465a.236.236,0,0,0,.232.233Z" transform="translate(-339.737 -356.149)"/><path class="a" d="M274.319,293.292h.465a.235.235,0,0,0,.232-.233v-.465a.235.235,0,0,0-.232-.232h-.465a.236.236,0,0,0-.233.232v.465a.236.236,0,0,0,.233.233Z" transform="translate(-268.503 -284.919)"/><path class="a" d="M201.233,220.2h.465a.236.236,0,0,0,.233-.233V219.5a.236.236,0,0,0-.233-.233h-.465a.236.236,0,0,0-.233.233v.465a.236.236,0,0,0,.233.233Z" transform="translate(-197.278 -213.688)"/><path class="a" d="M128.14,147.112h.465a.236.236,0,0,0,.233-.233v-.465a.236.236,0,0,0-.233-.233h-.465a.236.236,0,0,0-.233.233v.465a.236.236,0,0,0,.233.233Z" transform="translate(-126.046 -142.46)"/><path class="a" d="M347.412,293.292h.465a.235.235,0,0,0,.233-.233v-.465a.236.236,0,0,0-.233-.232h-.465a.236.236,0,0,0-.232.232v.465a.236.236,0,0,0,.232.233Z" transform="translate(-339.737 -284.919)"/><path class="a" d="M274.319,220.2h.465a.235.235,0,0,0,.232-.233V219.5a.235.235,0,0,0-.232-.233h-.465a.236.236,0,0,0-.233.233v.465a.236.236,0,0,0,.233.233Z" transform="translate(-268.503 -213.688)"/><path class="a" d="M201.233,147.112h.465a.236.236,0,0,0,.233-.233v-.465a.236.236,0,0,0-.233-.233h-.465a.236.236,0,0,0-.233.233v.465a.236.236,0,0,0,.233.233Z" transform="translate(-197.278 -142.46)"/><path class="a" d="M128.14,74.019h.465a.236.236,0,0,0,.233-.233v-.465a.236.236,0,0,0-.233-.233h-.465a.236.236,0,0,0-.233.233v.465a.236.236,0,0,0,.233.233Z" transform="translate(-126.046 -71.228)"/><path class="a" d="M347.412,220.2h.465a.236.236,0,0,0,.233-.233V219.5a.236.236,0,0,0-.233-.233h-.465a.236.236,0,0,0-.232.233v.465a.236.236,0,0,0,.232.233Z" transform="translate(-339.737 -213.688)"/><path class="a" d="M274.319,147.112h.465a.235.235,0,0,0,.232-.233v-.465a.235.235,0,0,0-.232-.233h-.465a.236.236,0,0,0-.233.233v.465a.236.236,0,0,0,.233.233Z" transform="translate(-268.503 -142.46)"/><path class="a" d="M201.233,74.019h.465a.236.236,0,0,0,.233-.233v-.465a.236.236,0,0,0-.233-.233h-.465a.236.236,0,0,0-.233.233v.465a.236.236,0,0,0,.233.233Z" transform="translate(-197.278 -71.228)"/><path class="a" d="M347.412,147.112h.465a.236.236,0,0,0,.233-.233v-.465a.236.236,0,0,0-.233-.233h-.465a.236.236,0,0,0-.232.233v.465a.236.236,0,0,0,.232.233Z" transform="translate(-339.737 -142.46)"/><path class="a" d="M274.319,74.019h.465a.235.235,0,0,0,.232-.233v-.465a.235.235,0,0,0-.232-.233h-.465a.236.236,0,0,0-.233.233v.465a.236.236,0,0,0,.233.233Z" transform="translate(-268.503 -71.228)"/><path class="a" d="M347.412,74.019h.465a.236.236,0,0,0,.233-.233v-.465a.236.236,0,0,0-.233-.233h-.465a.236.236,0,0,0-.232.233v.465a.236.236,0,0,0,.232.233Z" transform="translate(-339.737 -71.228)"/></g></g></svg>